<?xml version="1.0" encoding="UTF-8"?>
<svg width="16px" height="16px" viewBox="0 0 16 16" version="1.1" xmlns="http://www.w3.org/2000/svg" xmlns:xlink="http://www.w3.org/1999/xlink">
    <!-- Generator: Sketch 64 (93537) - https://sketch.com -->
    <title>侧边栏0首页白色_slice</title>
    <desc>Created with Sketch.</desc>
    <g id="控件" stroke="none" stroke-width="1" fill="none" fill-rule="evenodd">
        <g id="画板" transform="translate(-26.000000, -48.000000)" fill-rule="nonzero">
            <g id="侧边栏0首页白色" transform="translate(26.000000, 48.000000)">
                <rect id="矩形" fill="#000000" opacity="0" x="0" y="0" width="16" height="16"></rect>
                <path d="M14.89984,7.23728 L9.48896,1.68328 C9.08660727,1.271883 8.53544349,1.03998691 7.96,1.03998691 C7.38455651,1.03998691 6.83339273,1.271883 6.43104,1.68328 L1.02024,7.2372 C0.722998472,7.5427226 0.638260372,7.99684124 0.805315036,8.38900106 C0.972369701,8.78116088 1.35854957,9.03467498 1.7848,9.032 L2.2808,9.032 L2.2808,12.8544 C2.28758584,14.0221263 3.23826094,14.9640337 4.406,14.9600129 L6.4008,14.9600129 C6.84122195,14.9603106 7.19876483,14.6040203 7.2,14.1636 L7.2,10.064 L8.72,10.064 L8.72,14.16344 C8.72119114,14.6039358 9.07878273,14.9603105 9.51928,14.9600129 L11.32728,14.9600129 C12.4949747,14.9639893 13.4455781,14.0220821 13.45232,12.8544 L13.45232,9.032 L14.13552,9.032 C14.5616923,9.03454562 14.9477398,8.78100802 15.1147255,8.38890462 C15.2817111,7.99680122 15.1969934,7.54277814 14.89984,7.23728 L14.89984,7.23728 Z M13.18312,7.96264 C12.7427292,7.96232934 12.3851992,8.31857094 12.38392,8.75896 L12.38392,12.8544 C12.3776772,13.4322626 11.904835,13.8960145 11.32696,13.8910796 L9.78816,13.8910796 L9.78816,10.05336 C9.78577884,9.46747499 9.3095688,8.99409229 8.72368,8.9952 L7.19632,8.9952 C6.61048052,8.9941805 6.13434504,9.46752465 6.13192,10.05336 L6.13192,13.8910796 L4.406,13.8910796 C3.82812505,13.8960145 3.35528281,13.4322626 3.34904,12.8544 L3.34904,8.75896 C3.3477608,8.31857094 2.99023081,7.96232934 2.54984,7.96264 L1.80144,7.96656 L7.19584,2.42952 C7.39722636,2.2245751 7.67250939,2.10913434 7.95984,2.10913434 C8.24717061,2.10913434 8.52245364,2.2245751 8.72384,2.42952 L14.11448,7.96272 L13.18312,7.96272 L13.18312,7.96264 Z M14.13712,7.98576 C14.1364904,7.98488508 14.1359541,7.98394663 14.13552,7.98296 L14.51744,7.61032 L14.13712,7.98576 Z" id="形状" fill="#FFFFFF"></path>
            </g>
        </g>
    </g>
</svg>