<?xml version="1.0" encoding="UTF-8"?>
<svg width="16px" height="16px" viewBox="0 0 16 16" version="1.1" xmlns="http://www.w3.org/2000/svg" xmlns:xlink="http://www.w3.org/1999/xlink">
    <!-- Generator: Sketch 64 (93537) - https://sketch.com -->
    <title>侧边栏1白色_slice</title>
    <desc>Created with Sketch.</desc>
    <g id="控件" stroke="none" stroke-width="1" fill="none" fill-rule="evenodd">
        <g id="画板" transform="translate(-26.000000, -102.000000)" fill-rule="nonzero">
            <g id="侧边栏1白色" transform="translate(26.000000, 102.000000)">
                <rect id="矩形" fill="#000000" opacity="0" x="0" y="0" width="16" height="16"></rect>
                <path d="M13.95825,2.22075 L11.99175,2.22075 L11.99175,1.44 C11.9822516,1.18886184 11.7719529,0.992404509 11.52075,1 L4.35,1 C4.09879709,0.992404509 3.88849844,1.18886184 3.879,1.44 L3.879,2.22075 L2.029,2.22075 C1.89296453,2.21569165 1.76052897,2.26509509 1.66104201,2.35801216 C1.56155505,2.45092922 1.50323284,2.57968634 1.499,2.71575 L1.499,14.505 C1.50323284,14.6410637 1.56155505,14.7698208 1.66104201,14.8627378 C1.76052897,14.9556549 1.89296453,15.0050583 2.029,15 L13.96925,15 C14.1052855,15.0050583 14.237721,14.9556549 14.337208,14.8627378 C14.4366949,14.7698208 14.4950172,14.6410637 14.49925,14.505 L14.49925,2.71575 C14.4808281,2.43237444 14.2421431,2.21398432 13.95825,2.22075 L13.95825,2.22075 Z M4.8205,1.87975 L11.05,1.87975 L11.05,3.1335 L4.82075,3.1335 L4.8205,1.87975 Z M13.42825,14.01025 L2.54775,14.01025 L2.54775,3.21025 L3.8665,3.21025 L3.8665,3.57325 C3.87613238,3.82432693 4.08634906,4.0207077 4.3375,4.01325 L11.50875,4.01325 C11.7599529,4.02084549 11.9702516,3.82438816 11.97975,3.57325 L11.97975,3.2105 L13.41625,3.2105 L13.41625,14.0105 L13.42825,14.01025 Z M10.87575,8.20125 L8.613,8.20125 L8.613,5.92625 C8.61299999,5.63933808 8.38041192,5.40675002 8.0935,5.40675002 C7.80658808,5.40675002 7.57400001,5.63933808 7.574,5.92625 L7.574,8.189 L5.3115,8.189 C5.02458807,8.189 4.792,8.42158807 4.792,8.7085 C4.792,8.99541193 5.02458807,9.228 5.3115,9.228 L7.574,9.228 L7.574,11.49075 C7.574,11.7776619 7.80658807,12.01025 8.0935,12.01025 C8.38041193,12.01025 8.613,11.7776619 8.613,11.49075 L8.613,9.24075 L10.87575,9.24075 C11.1626619,9.24074999 11.39525,9.00816192 11.39525,8.72125 C11.39525,8.43433808 11.1626619,8.20175001 10.87575,8.20175 L10.87575,8.20125 Z" id="形状" fill="#FFFFFF"></path>
            </g>
        </g>
    </g>
</svg>