<?xml version="1.0" encoding="UTF-8"?>
<svg width="16px" height="16px" viewBox="0 0 16 16" version="1.1" xmlns="http://www.w3.org/2000/svg" xmlns:xlink="http://www.w3.org/1999/xlink">
    <!-- Generator: Sketch 64 (93537) - https://sketch.com -->
    <title>侧边栏3白色_slice</title>
    <desc>Created with Sketch.</desc>
    <g id="控件" stroke="none" stroke-width="1" fill="none" fill-rule="evenodd">
        <g id="画板" transform="translate(-26.000000, -210.000000)" fill-rule="nonzero">
            <g id="侧边栏3白色" transform="translate(26.000000, 210.000000)">
                <rect id="矩形" fill="#000000" opacity="0" x="0" y="0" width="16" height="16"></rect>
                <path d="M12.6671875,2.1671875 L12.6671875,13.834375 L3.3328125,13.834375 L3.3328125,2.1671875 L12.6671875,2.1671875 M12.6671875,1 L3.3328125,1 C2.6890625,1 2.165625,1.521875 2.165625,2.1671875 L2.165625,13.834375 C2.165625,14.478125 2.6875,15.0015625 3.3328125,15.0015625 L12.665625,15.0015625 C13.309375,15.0015625 13.8328125,14.4796875 13.8328125,13.834375 L13.8328125,2.1671875 C13.8328125,1.521875 13.3109375,1 12.6671875,1 Z M9.1671875,8.5828125 L5.0828125,8.5828125 C4.7609375,8.5828125 4.5,8.321875 4.5,8 C4.5,7.678125 4.7609375,7.4171875 5.0828125,7.4171875 L9.165625,7.4171875 C9.4875,7.4171875 9.74844448,7.678125 9.74844448,8 C9.75,8.321875 9.4890625,8.5828125 9.1671875,8.5828125 L9.1671875,8.5828125 Z M10.9171875,11.5 L5.0828125,11.5 C4.7609375,11.5 4.5,11.2390625 4.5,10.9171875 C4.5,10.5953125 4.7609375,10.334375 5.0828125,10.334375 L10.915625,10.334375 C11.2375,10.334375 11.4984445,10.5953125 11.4984445,10.9171875 C11.5,11.2390625 11.2390625,11.5 10.9171875,11.5 L10.9171875,11.5 Z M4.5,5.0828125 C4.5,5.29103136 4.61108343,5.48343352 4.79140624,5.58754295 C4.97172906,5.69165237 5.19389594,5.69165237 5.37421876,5.58754295 C5.55454157,5.48343352 5.665625,5.29103136 5.665625,5.0828125 C5.665625,4.76093404 5.40469096,4.5 5.0828125,4.5 C4.76093404,4.5 4.5,4.76093404 4.5,5.0828125 L4.5,5.0828125 Z M7.4171875,5.0828125 C7.4171875,5.29103136 7.52827092,5.48343352 7.70859374,5.58754295 C7.88891656,5.69165238 8.11108344,5.69165238 8.29140626,5.58754295 C8.47172908,5.48343352 8.5828125,5.29103136 8.5828125,5.0828125 C8.5828125,4.76093404 8.32187846,4.5 8,4.5 C7.67812154,4.5 7.4171875,4.76093404 7.4171875,5.0828125 L7.4171875,5.0828125 Z M10.334375,5.0828125 C10.334375,5.40469096 10.595309,5.665625 10.9171875,5.665625 C11.239066,5.665625 11.5,5.40469096 11.5,5.0828125 C11.5,4.76093404 11.239066,4.5 10.9171875,4.5 C10.595309,4.5 10.334375,4.76093404 10.334375,5.0828125 L10.334375,5.0828125 Z" id="形状" fill="#FFFFFF"></path>
            </g>
        </g>
    </g>
</svg>