<?xml version="1.0" encoding="UTF-8"?>
<svg width="16px" height="16px" viewBox="0 0 16 16" version="1.1" xmlns="http://www.w3.org/2000/svg" xmlns:xlink="http://www.w3.org/1999/xlink">
    <!-- Generator: Sketch 64 (93537) - https://sketch.com -->
    <title>侧边栏7白色_slice</title>
    <desc>Created with Sketch.</desc>
    <g id="控件" stroke="none" stroke-width="1" fill="none" fill-rule="evenodd">
        <g id="画板" transform="translate(-26.000000, -426.000000)" fill-rule="nonzero">
            <g id="侧边栏7白色" transform="translate(26.000000, 426.000000)">
                <rect id="矩形" fill="#000000" opacity="0" x="0" y="0" width="16" height="16"></rect>
                <path d="M14.4375,11.0625 L13.8040625,11.0625 C13.7515725,10.8586748 13.6705087,10.6633012 13.5632813,10.4821875 L14.0115625,10.0340625 C14.1170914,9.92856801 14.1763799,9.7854661 14.1763799,9.63625 C14.1763799,9.4870339 14.1170914,9.34393199 14.0115625,9.2384375 C13.906068,9.13290856 13.7629661,9.07362012 13.61375,9.07362012 C13.4645339,9.07362012 13.321432,9.13290856 13.2159375,9.2384375 L12.7678125,9.6875 C12.5867421,9.58000061 12.3913666,9.49867305 12.1875,9.4459375 L12.1875,8.8125 C12.1875,8.50183983 11.9356602,8.25 11.625,8.25 C11.3143398,8.25 11.0625,8.50183983 11.0625,8.8125 L11.0625,9.4459375 C10.8586334,9.49867305 10.6632579,9.58000061 10.4821875,9.6875 L10.0340625,9.23921875 C9.92856801,9.13368981 9.7854661,9.07440137 9.63625,9.07440137 C9.4870339,9.07440137 9.34393199,9.13368981 9.2384375,9.23921875 C9.13290856,9.34471324 9.07362012,9.48781515 9.07362012,9.63703125 C9.07362012,9.78624735 9.13290856,9.92934926 9.2384375,10.0348437 L9.6875,10.4821875 C9.58000061,10.6632579 9.49867305,10.8586334 9.4459375,11.0625 L8.8125,11.0625 C8.50183983,11.0625 8.25,11.3143398 8.25,11.625 C8.25,11.9356602 8.50183983,12.1875 8.8125,12.1875 L9.4459375,12.1875 C9.49867305,12.3913666 9.58000061,12.5867421 9.6875,12.7678125 L9.23921875,13.2159375 C9.13368981,13.321432 9.07440137,13.4645339 9.07440137,13.61375 C9.07440137,13.7629661 9.13368981,13.906068 9.23921875,14.0115625 C9.45888565,14.2312148 9.8150206,14.2312148 10.0346875,14.0115625 L10.4828125,13.5632812 C10.6637312,13.6704546 10.8588909,13.7515169 11.0625,13.8040625 L11.0625,14.4375 C11.0625,14.7481602 11.3143398,15 11.625,15 C11.9356602,15 12.1875,14.7481602 12.1875,14.4375 L12.1875,13.8040625 C12.3913252,13.7515725 12.5866988,13.6705087 12.7678125,13.5632812 L13.2159375,14.0115625 C13.321432,14.1170914 13.4645339,14.1763799 13.61375,14.1763799 C13.7629661,14.1763799 13.906068,14.1170914 14.0115625,14.0115625 C14.1170914,13.906068 14.1763799,13.7629661 14.1763799,13.61375 C14.1763799,13.4645339 14.1170914,13.321432 14.0115625,13.2159375 L13.5632812,12.7678125 C13.6705087,12.5866988 13.7515725,12.3913252 13.8040625,12.1875 L14.4375,12.1875 C14.7481602,12.1875 15,11.9356602 15,11.625 C15,11.3143398 14.7481602,11.0625 14.4375,11.0625 L14.4375,11.0625 Z M11.625,12.75 C11.0036797,12.75 10.5,12.2463203 10.5,11.625 C10.5,11.0036797 11.0036797,10.5 11.625,10.5 C12.2463203,10.5 12.75,11.0036797 12.75,11.625 C12.75,12.2463203 12.2463203,12.75 11.625,12.75 L11.625,12.75 Z M13.4375,1 L2.5625,1 C1.703125,1 1,1.703125 1,2.5625 L1,10.625 C1,11.484375 1.703125,12.1875 2.5625,12.1875 L6,12.1875 L6,13.875 L3.8125,13.875 C3.50183983,13.875 3.25,14.1268398 3.25,14.4375 C3.25,14.7481602 3.50183983,15 3.8125,15 L6.5625,15 C6.87316017,15 7.125,14.7481602 7.125,14.4375 L7.125,11.625 C7.125,11.3143398 6.87316017,11.0625 6.5625,11.0625 L2.90625,11.0625 C2.47531177,11.061213 2.12628703,10.7121882 2.125,10.28125 L2.125,9.359375 L6.5625,9.359375 C6.87316017,9.359375 7.125,9.10753517 7.125,8.796875 C7.125,8.48621483 6.87316017,8.234375 6.5625,8.234375 L2.125,8.234375 L2.125,2.90625 C2.12628703,2.47531177 2.47531177,2.12628703 2.90625,2.125 L13.09375,2.125 C13.5246882,2.12628703 13.873713,2.47531177 13.875,2.90625 L13.875,6.5625 C13.875,6.87316017 14.1268398,7.125 14.4375,7.125 C14.7481602,7.125 15,6.87316017 15,6.5625 L15,2.5625 C15,1.703125 14.296875,1 13.4375,1 L13.4375,1 Z" id="形状" fill="#FFFFFF"></path>
            </g>
        </g>
    </g>
</svg>