<?xml version="1.0" encoding="UTF-8"?>
<svg width="16px" height="16px" viewBox="0 0 16 16" version="1.1" xmlns="http://www.w3.org/2000/svg" xmlns:xlink="http://www.w3.org/1999/xlink">
    <!-- Generator: Sketch 64 (93537) - https://sketch.com -->
    <title>侧边栏2白色_slice</title>
    <desc>Created with Sketch.</desc>
    <g id="控件" stroke="none" stroke-width="1" fill="none" fill-rule="evenodd">
        <g id="画板" transform="translate(-26.000000, -156.000000)" fill-rule="nonzero">
            <g id="侧边栏2白色" transform="translate(26.000000, 156.000000)">
                <rect id="矩形" fill="#000000" opacity="0" x="0" y="0" width="16" height="16"></rect>
                <path d="M5.32234375,9.97296875 C5.05265625,9.97296875 4.83421875,10.1915625 4.83421875,10.4610937 C4.83421875,10.730625 5.05265625,10.9492188 5.32234375,10.9492188 L8.23765625,10.9492188 C8.50734375,10.9492188 8.72578125,10.730625 8.72578125,10.4610937 C8.72578125,10.1915625 8.50734375,9.97296875 8.23765625,9.97296875 L5.32234375,9.97296875 Z M10.0276562,6.9675 C10.0276562,6.69796875 9.80921875,6.479375 9.53953125,6.479375 L5.32234375,6.479375 C5.05265625,6.479375 4.83421875,6.69796875 4.83421875,6.9675 C4.83421875,7.23703125 5.05265625,7.45562508 5.32234375,7.45562508 L9.539375,7.45562508 C9.8090625,7.45578125 10.0276562,7.23703125 10.0276562,6.9675 Z M12.4754688,12.7335938 C12.2057813,12.7335938 11.9873438,12.9521875 11.9873438,13.2217188 L11.9873438,14.0235938 L2.87453125,14.0235938 L2.87453125,2.958125 L4.26203125,2.958125 C4.465,3.52359375 5.00640625,3.9290625 5.6409375,3.9290625 L9.2209375,3.9290625 C9.85546875,3.9290625 10.396875,3.52359375 10.5998438,2.958125 L11.9873438,2.958125 L11.9873438,5.665625 C11.9873438,5.93515625 12.2057813,6.15375 12.4754688,6.15375 C12.7451563,6.15375 12.9635938,5.93515625 12.9635938,5.665625 L12.9635938,2.47 C12.9635938,2.20046875 12.7451563,1.981875 12.4754688,1.981875 L10.6035938,1.981875 C10.40375,1.410625 9.85953125,1 9.2209375,1 L5.6409375,1 C5.0025,1 4.458125,1.410625 4.25828125,1.98171875 L2.38640625,1.98171875 C2.11671875,1.98171875 1.89828125,2.2003125 1.89828125,2.46984375 L1.89828125,14.5117188 C1.89828125,14.78125 2.11671875,14.9998438 2.38640625,14.9998438 L12.4754688,14.9998438 C12.7451563,14.9998438 12.9635938,14.78125 12.9635938,14.5117188 L12.9635938,13.2217188 C12.96375,12.9521875 12.7451563,12.7335938 12.4754688,12.7335938 Z M5.6409375,1.97640625 L9.2209375,1.97640625 C9.49015625,1.97640625 9.7090625,2.1953125 9.7090625,2.46453125 C9.7090625,2.73375 9.49015625,2.95265625 9.2209375,2.95265625 L5.6409375,2.95265625 C5.37171875,2.95265625 5.1528125,2.73375 5.1528125,2.46453125 C5.1528125,2.1953125 5.37171875,1.97640625 5.6409375,1.97640625 Z M13.9271875,7.525625 C13.7204688,7.35234375 13.4128125,7.379375 13.239375,7.58640625 L10.038125,11.4073437 C9.865,11.6139062 9.8921875,11.921875 10.0989063,12.0948437 C10.1903125,12.1714063 10.3015625,12.2089062 10.4121875,12.2089062 C10.5517187,12.2089062 10.6901562,12.1495312 10.7867188,12.0340625 L13.9879688,8.213125 C14.1609375,8.0065625 14.13375,7.69859375 13.9271875,7.525625 Z" id="形状" fill="#FFFFFF"></path>
            </g>
        </g>
    </g>
</svg>