<?xml version="1.0" encoding="UTF-8"?>
<svg width="16px" height="16px" viewBox="0 0 16 16" version="1.1" xmlns="http://www.w3.org/2000/svg" xmlns:xlink="http://www.w3.org/1999/xlink">
    <!-- Generator: Sketch 64 (93537) - https://sketch.com -->
    <title>侧边栏4白色_slice</title>
    <desc>Created with Sketch.</desc>
    <g id="控件" stroke="none" stroke-width="1" fill="none" fill-rule="evenodd">
        <g id="画板" transform="translate(-26.000000, -264.000000)" fill-rule="nonzero">
            <g id="侧边栏4白色" transform="translate(26.000000, 264.000000)">
                <rect id="矩形" fill="#000000" opacity="0" x="0" y="0" width="16" height="16"></rect>
                <path d="M5.7453125,14.8828125 C4.5109375,14.8828125 3.3515625,14.403125 2.4796875,13.5296875 C1.6078125,12.6578125 1.1265625,11.496875 1.1265625,10.2640625 C1.1265625,9.0296875 1.60625,7.8703125 2.4796875,6.9984375 L7.0375,2.440625 C7.909375,1.56875 9.0703125,1.0875 10.303125,1.0875 C11.5375,1.0875 12.696875,1.5671875 13.56875,2.440625 C14.440625,3.3140625 14.921875,4.4734375 14.921875,5.70625 C14.921875,6.940625 14.4421875,8.1 13.56875,8.971875 L9.0109375,13.5296875 C8.1390625,14.4015625 6.9796875,14.8828125 5.7453125,14.8828125 Z M3.253125,12.75625 C3.91875,13.421875 4.8046875,13.7890625 5.7453125,13.7890625 C6.6875,13.7890625 7.571875,13.421875 8.2375,12.75625 L12.796875,8.196875 C14.171875,6.821875 14.171875,4.5859375 12.796875,3.2125 C12.13125,2.546875 11.2453125,2.1796875 10.3046875,2.1796875 C9.3625,2.1796875 8.478125,2.546875 7.8125,3.2125 L3.253125,7.7703125 C1.878125,9.1453125 1.878125,11.38125 3.253125,12.75625 L3.253125,12.75625 Z" id="形状" fill="#FFFFFF"></path>
                <path d="M4.84828125,5.621625 L5.6216875,4.84823438 L11.2464375,10.4729688 L10.4730469,11.2463594 L4.84828125,5.621625 Z M12.0015625,12.6046875 L14.0015625,12.6046875 L14.0015625,13.3859375 L12.0015625,13.3859375 L12.0015625,12.6046875 Z" id="形状" fill="#FFFFFF"></path>
                <path d="M12.6125,11.996875 L13.39375,11.996875 L13.39375,13.99375 L12.6125,13.99375 L12.6125,11.996875 Z M4.44375,2.5125 L4.35,2.5125 C4.0859375,2.5125 3.871875,2.2890625 3.871875,2.0140625 C3.871875,1.7390625 4.0859375,1.515625 4.35,1.515625 L4.44375,1.515625 C4.7078125,1.515625 4.921875,1.7390625 4.921875,2.0140625 C4.921875,2.2890625 4.7078125,2.5125 4.44375,2.5125 Z M2.1484375,5.328125 C1.5109375,5.328125 0.9921875,4.809375 0.9921875,4.171875 C0.9921875,3.534375 1.5109375,3.015625 2.1484375,3.015625 C2.7859375,3.015625 3.3046875,3.534375 3.3046875,4.171875 C3.3046875,4.809375 2.7859375,5.328125 2.1484375,5.328125 Z M2.1484375,3.796875 C1.9421875,3.796875 1.7734375,3.965625 1.7734375,4.171875 C1.7734375,4.378125 1.9421875,4.546875 2.1484375,4.546875 C2.3546875,4.546875 2.5234375,4.378125 2.5234375,4.171875 C2.5234375,3.965625 2.3546875,3.796875 2.1484375,3.796875 Z" id="形状" fill="#FFFFFF"></path>
            </g>
        </g>
    </g>
</svg>