<?xml version="1.0" encoding="UTF-8"?>
<svg width="16px" height="16px" viewBox="0 0 16 16" version="1.1" xmlns="http://www.w3.org/2000/svg" xmlns:xlink="http://www.w3.org/1999/xlink">
    <!-- Generator: Sketch 64 (93537) - https://sketch.com -->
    <title>侧边栏5白色_slice</title>
    <desc>Created with Sketch.</desc>
    <g id="控件" stroke="none" stroke-width="1" fill="none" fill-rule="evenodd">
        <g id="画板" transform="translate(-26.000000, -318.000000)" fill-rule="nonzero">
            <g id="侧边栏5白色" transform="translate(26.000000, 318.000000)">
                <rect id="矩形" fill="#000000" opacity="0" x="0" y="0" width="16" height="16"></rect>
                <path d="M11.5824,14.72 L4.41768,14.72 C3.56976,14.72 2.87999992,14.0008 2.87999992,13.11672 L2.87999992,6.89376 C2.87999992,6.688104 2.9620246,6.49094335 3.10808,6.34616 L4.7836,4.70352 L11.5808,4.70352 L12.94928,6.39048 C13.0598843,6.52774708 13.1201346,6.69875746 13.1200002,6.87504 L13.1200002,13.11672 C13.1200002,14.0008 12.43024,14.72 11.5824,14.72 Z M3.82112,6.97144 L3.82112,13.11672 C3.82112,13.47672 4.08872,13.77 4.41768,13.77 L11.58248,13.77 C11.91144,13.77 12.17904,13.47696 12.17904,13.11672 L12.17904,6.94032 L11.13504,5.6536 L5.16536,5.6536 L3.82112,6.97144 Z M11.18728,4.06136 L4.74664,4.06136 C4.33783417,4.05893675 4.00807404,3.72617098 4.00935338,3.31736 L4.00935338,2.2936 C4.00736542,1.7366925 4.45653847,1.2832607 5.01344,1.28 L10.92048,1.28 C11.4773944,1.28326067 11.9265904,1.7366795 11.9246463,2.2936 L11.9246463,3.31704 C11.9261026,3.72600676 11.5962424,4.05898053 11.18728,4.06136 L11.18728,4.06136 Z M4.9504,3.11136 L10.9835202,3.11136 L10.9835202,2.2936 C10.9836087,2.25866942 10.9554102,2.23025631 10.92048,2.23008 L5.01344,2.23008 C4.97854105,2.23030021 4.9504,2.25870047 4.95048,2.2936 L4.95048,3.11136 L4.9504,3.11136 Z" id="形状" fill="#FFFFFF"></path>
                <polygon id="路径" fill="#72767B" points="10.31696 9.10936 8.49432 9.10936 8.49432 7.28048 7.55088 7.28048 7.55088 9.10936 5.728 9.10936 5.728 10.056 7.55088 10.056 7.55088 11.88488 8.49432 11.88488 8.49432 10.056 10.31696 10.056 10.31696 9.10936"></polygon>
            </g>
        </g>
    </g>
</svg>