<?xml version="1.0" encoding="UTF-8"?>
<svg width="16px" height="16px" viewBox="0 0 16 16" version="1.1" xmlns="http://www.w3.org/2000/svg" xmlns:xlink="http://www.w3.org/1999/xlink">
    <!-- Generator: Sketch 64 (93537) - https://sketch.com -->
    <title>侧边栏6白色_slice</title>
    <desc>Created with Sketch.</desc>
    <g id="控件" stroke="none" stroke-width="1" fill="none" fill-rule="evenodd">
        <g id="画板" transform="translate(-26.000000, -372.000000)" fill-rule="nonzero">
            <g id="侧边栏6白色" transform="translate(26.000000, 372.000000)">
                <rect id="矩形" fill="#000000" opacity="0" x="0" y="0" width="16" height="16"></rect>
                <path d="M10.4784,8.7024 C10.2957721,8.64133503 10.0953585,8.71682413 9.9984,8.8832 L8,12.336 L6.0064,8.8832 C5.90944146,8.71682413 5.70902792,8.64133503 5.5264,8.7024 C2.7671775,9.66616306 0.810425327,12.1337515 0.5008,15.04 C0.489044547,15.1542346 0.526167884,15.2681103 0.602990375,15.3534687 C0.679812866,15.438827 0.789162515,15.487699 0.904,15.488 L15.096,15.488 C15.2108375,15.487699 15.3201871,15.438827 15.3970096,15.3534687 C15.4738321,15.2681103 15.5109555,15.1542346 15.4992,15.04 C15.1903833,12.1349476 13.2357454,9.66766881 10.4784,8.7024 L10.4784,8.7024 Z M1.3696,14.6688 C1.77334475,12.3816762 3.32395033,10.4624543 5.4752,9.5872 L7.648,13.3504 C7.72637852,13.4676879 7.85813388,13.538108 7.9992,13.538108 C8.14026612,13.538108 8.27202148,13.4676879 8.3504,13.3504 L10.5248,9.5872 C12.6760497,10.4624543 14.2266553,12.3816762 14.6304,14.6688 L1.3696,14.6688 Z" id="形状" fill="#FFFFFF"></path>
                <path d="M12,10.8608 C11.4499058,10.5432672 10.746561,10.7316376 10.4288,11.2816 L9.5504,12.8 C9.3414372,13.1559549 9.33918879,13.5965783 9.54450809,13.9546472 C9.74982738,14.3127161 10.1312421,14.5333442 10.544,14.532801 C10.6450474,14.5325191 10.7456274,14.5190726 10.8432,14.4928 C11.1378817,14.4142589 11.3890058,14.2213081 11.5408,13.9568 L12.4224,12.4304 C12.7385762,11.8802443 12.5495844,11.1779681 12,10.8608 Z M11.4272,11.52 C11.5481376,11.5196798 11.660008,11.5840744 11.720472,11.6888127 C11.7809361,11.7935509 11.780756,11.9226309 11.72,12.0272 L11.4496,12.496 L10.88,12.1392 L11.1344,11.68 C11.1972085,11.5790315 11.308302,11.5183247 11.4272,11.52 L11.4272,11.52 Z M10.8384,13.552 C10.7451743,13.713709 10.538509,13.7692257 10.3768,13.676 C10.215091,13.5827743 10.1595743,13.376109 10.2528,13.2144 L10.4672,12.8432 L11.04,13.1968 L10.8384,13.552 Z M8,9.08965056 C10.433667,9.10024265 12.4168635,7.13923268 12.4336732,4.7056 L12.4336732,4.5312 L12.4336732,4.3408 C12.4409571,2.99397426 11.8935267,1.70351988 10.92,0.7728 C10.8557809,0.712736297 10.7738134,0.675121066 10.6864,0.6656 C8.9003329,0.468895735 7.0980671,0.468895735 5.312,0.6656 C5.22458665,0.675121066 5.14261913,0.712736297 5.0784,0.7728 C4.10487331,1.70351988 3.55744288,2.99397426 3.56472679,4.3408 L3.56472679,4.7056 C3.58153676,7.13986006 5.5657097,9.10112768 8,9.08965056 L8,9.08965056 Z M11.6176,4.5472 C11.52,6.6224 9.9344,8.2784 8,8.2784 C6.0656,8.2784 4.48,6.6224 4.3824,4.5472 C4.3824,4.472 4.392,4.3968 4.4016,4.3184 C6.78987203,3.98285783 9.21332797,3.98285783 11.6016,4.3184 C11.608,4.3968 11.6144,4.48 11.6176,4.5472 L11.6176,4.5472 Z M5.5376,1.4592 C7.17370667,1.28876424 8.82309333,1.28876424 10.4592,1.4592 C11.0071201,2.01789703 11.3806955,2.72391011 11.5344,3.4912 C9.18747128,3.17797715 6.80932872,3.17797715 4.4624,3.4912 C4.61655436,2.72372917 4.99069603,2.01769659 5.5392,1.4592 L5.5376,1.4592 Z" id="形状" fill="#FFFFFF"></path>
                <path d="M7.536,2.5968 L7.696,2.5968 L7.696,2.768 C7.65650234,2.89911875 7.70481335,3.04083778 7.81617487,3.1205297 C7.9275364,3.20022163 8.0772636,3.20022163 8.18862513,3.1205297 C8.29998665,3.04083778 8.34829766,2.89911875 8.3088,2.768 L8.3088,2.5968 L8.4688,2.5968 C8.65192104,2.61565321 8.81665432,2.48500268 8.84,2.3024 C8.81665432,2.11979732 8.65192104,1.98914679 8.4688,2.008 L8.3088,2.008 L8.3088,1.84 C8.34829766,1.70888125 8.29998665,1.56716222 8.18862513,1.4874703 C8.0772636,1.40777837 7.9275364,1.40777837 7.81617487,1.4874703 C7.70481335,1.56716222 7.65650234,1.70888125 7.696,1.84 L7.696,2.0096 L7.536,2.0096 C7.35287896,1.99074679 7.18814568,2.12139732 7.1648,2.304 C7.18893176,2.48595768 7.3534257,2.61570936 7.536,2.5968 L7.536,2.5968 Z" id="路径" fill="#FFFFFF"></path>
            </g>
        </g>
    </g>
</svg>